<mxfile host="app.diagrams.net" modified="2024-07-04T01:13:57.242Z" agent="Mozilla/5.0 (Windows NT 10.0; Win64; x64) AppleWebKit/537.36 (KHTML, like Gecko) Chrome/126.0.0.0 Safari/537.36" version="24.3.1" etag="6Ircsac0PxUcNOxDFVd1" type="github">
  <diagram name="第1頁" id="llZAXN49h1KzlX6qG1XH">
    <mxGraphModel>
      <root>
        <mxCell id="0" />
        <mxCell id="1" parent="0" />
      </root>
    </mxGraphModel>
  </diagram>
</mxfile>
